<svg width="106" height="32" viewBox="0 0 106 32" fill="none" xmlns="http://www.w3.org/2000/svg">
<path d="M12.92 13.94H9.04V31.5H3.36V13.94H0.84V9.34H3.36V8.22C3.36 5.5 4.13333 3.5 5.68 2.22C7.22667 0.939998 9.56 0.339999 12.68 0.42V5.14C11.32 5.11333 10.3733 5.34 9.84 5.82C9.30667 6.3 9.04 7.16667 9.04 8.42V9.34H12.92V13.94ZM14.7091 20.34C14.7091 18.1 15.1491 16.1133 16.0291 14.38C16.9357 12.6467 18.1491 11.3133 19.6691 10.38C21.2157 9.44667 22.9357 8.98 24.8291 8.98C26.4824 8.98 27.9224 9.31333 29.1491 9.98C30.4024 10.6467 31.4024 11.4867 32.1491 12.5V9.34H37.7891V31.5H32.1491V28.26C31.4291 29.3 30.4291 30.1667 29.1491 30.86C27.8957 31.5267 26.4424 31.86 24.7891 31.86C22.9224 31.86 21.2157 31.38 19.6691 30.42C18.1491 29.46 16.9357 28.1133 16.0291 26.38C15.1491 24.62 14.7091 22.6067 14.7091 20.34ZM32.1491 20.42C32.1491 19.06 31.8824 17.9 31.3491 16.94C30.8157 15.9533 30.0957 15.2067 29.1891 14.7C28.2824 14.1667 27.3091 13.9 26.2691 13.9C25.2291 13.9 24.2691 14.1533 23.3891 14.66C22.5091 15.1667 21.7891 15.9133 21.2291 16.9C20.6957 17.86 20.4291 19.0067 20.4291 20.34C20.4291 21.6733 20.6957 22.8467 21.2291 23.86C21.7891 24.8467 22.5091 25.6067 23.3891 26.14C24.2957 26.6733 25.2557 26.94 26.2691 26.94C27.3091 26.94 28.2824 26.6867 29.1891 26.18C30.0957 25.6467 30.8157 24.9 31.3491 23.94C31.8824 22.9533 32.1491 21.78 32.1491 20.42ZM48.4584 12.58C49.1784 11.5133 50.1651 10.6467 51.4184 9.98C52.6984 9.31333 54.1518 8.98 55.7784 8.98C57.6718 8.98 59.3784 9.44667 60.8984 10.38C62.4451 11.3133 63.6584 12.6467 64.5384 14.38C65.4451 16.0867 65.8984 18.0733 65.8984 20.34C65.8984 22.6067 65.4451 24.62 64.5384 26.38C63.6584 28.1133 62.4451 29.46 60.8984 30.42C59.3784 31.38 57.6718 31.86 55.7784 31.86C54.1251 31.86 52.6718 31.54 51.4184 30.9C50.1918 30.2333 49.2051 29.38 48.4584 28.34V31.5H42.8584V1.9H48.4584V12.58ZM60.1784 20.34C60.1784 19.0067 59.8984 17.86 59.3384 16.9C58.8051 15.9133 58.0851 15.1667 57.1784 14.66C56.2984 14.1533 55.3384 13.9 54.2984 13.9C53.2851 13.9 52.3251 14.1667 51.4184 14.7C50.5384 15.2067 49.8184 15.9533 49.2584 16.94C48.7251 17.9267 48.4584 19.0867 48.4584 20.42C48.4584 21.7533 48.7251 22.9133 49.2584 23.9C49.8184 24.8867 50.5384 25.6467 51.4184 26.18C52.3251 26.6867 53.2851 26.94 54.2984 26.94C55.3384 26.94 56.2984 26.6733 57.1784 26.14C58.0851 25.6067 58.8051 24.8467 59.3384 23.86C59.8984 22.8733 60.1784 21.7 60.1784 20.34ZM72.4078 6.7C71.4211 6.7 70.5945 6.39333 69.9278 5.78C69.2878 5.14 68.9678 4.35333 68.9678 3.42C68.9678 2.48667 69.2878 1.71333 69.9278 1.1C70.5945 0.459998 71.4211 0.139998 72.4078 0.139998C73.3945 0.139998 74.2078 0.459998 74.8478 1.1C75.5145 1.71333 75.8478 2.48667 75.8478 3.42C75.8478 4.35333 75.5145 5.14 74.8478 5.78C74.2078 6.39333 73.3945 6.7 72.4078 6.7ZM75.1678 9.34V31.5H69.5678V9.34H75.1678ZM86.8206 13.94V24.66C86.8206 25.4067 86.994 25.9533 87.3406 26.3C87.714 26.62 88.3273 26.78 89.1806 26.78H91.7806V31.5H88.2606C83.5406 31.5 81.1806 29.2067 81.1806 24.62V13.94H78.5406V9.34H81.1806V3.86H86.8206V9.34H91.7806V13.94H86.8206Z" fill="black"/>
<g clip-path="url(#clip0_1779_1380)">
<path d="M102.001 14.2333C104.063 14.2333 105.734 12.5618 105.734 10.4999C105.734 8.43807 104.063 6.7666 102.001 6.7666C99.939 6.7666 98.2676 8.43807 98.2676 10.4999C98.2676 12.5618 99.939 14.2333 102.001 14.2333Z" stroke="#1F2026" stroke-width="0.5"/>
<path d="M100.666 12.7542V8.09961H102.239C102.602 8.09961 102.901 8.16173 103.134 8.28597C103.368 8.4087 103.54 8.57764 103.652 8.79279C103.765 9.00795 103.821 9.25264 103.821 9.52688C103.821 9.80112 103.765 10.0443 103.652 10.2564C103.54 10.4685 103.368 10.6352 103.136 10.7564C102.905 10.8761 102.608 10.936 102.248 10.936H100.975V10.4269H102.23C102.478 10.4269 102.678 10.3905 102.83 10.3178C102.983 10.2451 103.093 10.142 103.161 10.0087C103.231 9.87385 103.266 9.71325 103.266 9.52688C103.266 9.34052 103.231 9.17764 103.161 9.03824C103.092 8.89885 102.98 8.79128 102.827 8.71552C102.674 8.63824 102.472 8.59961 102.221 8.59961H101.23V12.7542H100.666ZM102.857 10.6632L104.002 12.7542H103.348L102.221 10.6632H102.857Z" fill="#1F2026"/>
</g>
<defs>
<clipPath id="clip0_1779_1380">
<rect width="8" height="8" fill="white" transform="translate(98 6.5)"/>
</clipPath>
</defs>
</svg>
